<svg width="306" height="49" viewBox="0 0 306 49" fill="none" xmlns="http://www.w3.org/2000/svg">
<g opacity="0.6">
<g clip-path="url(#clip0_283_935)">
<path d="M302.272 0.48584H260.983C259.006 0.48584 257.406 2.04731 257.406 3.97785V45.4372C257.406 47.3677 259.006 48.9387 260.983 48.9387H302.272C304.25 48.9387 305.859 47.3677 305.859 45.4467V3.97785C305.859 2.04731 304.25 0.48584 302.272 0.48584ZM271.781 41.7748H264.589V18.6462H271.781V41.7748ZM268.185 15.4949C265.876 15.4949 264.012 13.6306 264.012 11.3309C264.012 9.03133 265.876 7.16703 268.185 7.16703C270.485 7.16703 272.349 9.03133 272.349 11.3309C272.349 13.6211 270.485 15.4949 268.185 15.4949ZM298.695 41.7748H291.512V30.5323C291.512 27.8541 291.465 24.4 287.774 24.4C284.036 24.4 283.469 27.3242 283.469 30.343V41.7748H276.295V18.6462H283.185V21.807H283.279C284.235 19.99 286.582 18.0689 290.074 18.0689C297.351 18.0689 298.695 22.8574 298.695 29.0844V41.7748V41.7748Z" fill="white"/>
</g>
<g clip-path="url(#clip1_283_935)">
<path d="M153.18 4.84849C159.653 4.84849 160.419 4.87688 162.965 4.99044C165.331 5.09454 166.608 5.492 167.46 5.82322C168.586 6.25854 169.4 6.78849 170.242 7.63074C171.094 8.48245 171.614 9.28684 172.05 10.413C172.381 11.2647 172.778 12.5517 172.882 14.9081C172.996 17.4633 173.024 18.2298 173.024 24.6933C173.024 31.1663 172.996 31.9329 172.882 34.4785C172.778 36.8444 172.381 38.122 172.05 38.9737C171.614 40.0998 171.084 40.9137 170.242 41.7559C169.39 42.6076 168.586 43.1281 167.46 43.5634C166.608 43.8947 165.321 44.2921 162.965 44.3962C160.41 44.5098 159.643 44.5382 153.18 44.5382C146.707 44.5382 145.94 44.5098 143.394 44.3962C141.028 44.2921 139.751 43.8947 138.899 43.5634C137.773 43.1281 136.959 42.5982 136.117 41.7559C135.265 40.9042 134.745 40.0998 134.309 38.9737C133.978 38.122 133.581 36.8349 133.477 34.4785C133.363 31.9234 133.335 31.1569 133.335 24.6933C133.335 18.2203 133.363 17.4538 133.477 14.9081C133.581 12.5423 133.978 11.2647 134.309 10.413C134.745 9.28684 135.275 8.47299 136.117 7.63074C136.969 6.77903 137.773 6.25854 138.899 5.82322C139.751 5.492 141.038 5.09454 143.394 4.99044C145.94 4.87688 146.707 4.84849 153.18 4.84849ZM153.18 0.48584C146.602 0.48584 145.779 0.51423 143.196 0.627791C140.622 0.741353 138.852 1.15774 137.319 1.75394C135.719 2.37853 134.366 3.20185 133.022 4.55512C131.669 5.89893 130.846 7.2522 130.221 8.84206C129.625 10.3846 129.209 12.1448 129.095 14.7189C128.982 17.3118 128.953 18.1352 128.953 24.7123C128.953 31.2893 128.982 32.1127 129.095 34.6962C129.209 37.2702 129.625 39.0399 130.221 40.573C130.846 42.1723 131.669 43.5256 133.022 44.8694C134.366 46.2132 135.719 47.046 137.309 47.6611C138.852 48.2573 140.612 48.6737 143.186 48.7872C145.77 48.9008 146.593 48.9292 153.17 48.9292C159.747 48.9292 160.57 48.9008 163.154 48.7872C165.728 48.6737 167.498 48.2573 169.031 47.6611C170.621 47.046 171.974 46.2132 173.318 44.8694C174.662 43.5256 175.494 42.1723 176.109 40.5824C176.706 39.0399 177.122 37.2797 177.236 34.7056C177.349 32.1221 177.378 31.2988 177.378 24.7217C177.378 18.1446 177.349 17.3213 177.236 14.7378C177.122 12.1637 176.706 10.3941 176.109 8.86099C175.513 7.2522 174.69 5.89893 173.337 4.55512C171.993 3.21131 170.64 2.37853 169.05 1.7634C167.507 1.16721 165.747 0.750816 163.173 0.637255C160.58 0.51423 159.757 0.48584 153.18 0.48584Z" fill="white"/>
<path d="M153.18 12.2681C146.309 12.2681 140.735 17.842 140.735 24.7125C140.735 31.583 146.309 37.1569 153.18 37.1569C160.05 37.1569 165.624 31.583 165.624 24.7125C165.624 17.842 160.05 12.2681 153.18 12.2681ZM153.18 32.7848C148.722 32.7848 145.107 29.1698 145.107 24.7125C145.107 20.2552 148.722 16.6402 153.18 16.6402C157.637 16.6402 161.252 20.2552 161.252 24.7125C161.252 29.1698 157.637 32.7848 153.18 32.7848Z" fill="white"/>
<path d="M169.021 11.7754C169.021 13.3842 167.715 14.6807 166.116 14.6807C164.507 14.6807 163.211 13.3747 163.211 11.7754C163.211 10.1666 164.517 8.87012 166.116 8.87012C167.715 8.87012 169.021 10.1761 169.021 11.7754Z" fill="white"/>
</g>
<g clip-path="url(#clip2_283_935)">
<path d="M15.7428 44.3962C34.0224 44.3962 44.0233 29.2481 44.0233 16.1157C44.0233 15.6898 44.0139 15.2545 43.9949 14.8286C45.9404 13.4217 47.6194 11.679 48.9528 9.68243C47.1409 10.4886 45.2172 11.015 43.2473 11.2439C45.3214 10.0006 46.8745 8.04749 47.6185 5.74658C45.6672 6.90297 43.5333 7.7187 41.3083 8.15881C39.809 6.56582 37.8268 5.51108 35.668 5.15764C33.5093 4.80421 31.2942 5.17178 29.3652 6.20351C27.4363 7.23524 25.901 8.87368 24.9966 10.8655C24.0923 12.8573 23.8693 15.0916 24.3621 17.2229C20.4111 17.0246 16.5458 15.9983 13.0169 14.2103C9.48805 12.4224 6.37429 9.91286 3.8775 6.84434C2.6085 9.03224 2.22019 11.6212 2.79148 14.0852C3.36276 16.5491 4.85079 18.703 6.95312 20.1092C5.37481 20.0591 3.83108 19.6342 2.44947 18.8695V18.9926C2.44806 21.2886 3.24182 23.5143 4.69583 25.2912C6.14985 27.0682 8.17437 28.2868 10.4253 28.7399C8.9632 29.1399 7.42872 29.1982 5.94053 28.9102C6.57569 30.8849 7.81148 32.6119 9.47542 33.8504C11.1394 35.0888 13.1485 35.7769 15.2223 35.8186C11.7015 38.5842 7.35239 40.0842 2.87532 40.0771C2.08135 40.0759 1.28816 40.0272 0.5 39.9314C5.04822 42.8493 10.339 44.3991 15.7428 44.3962Z" fill="white"/>
</g>
</g>
<defs>
<clipPath id="clip0_283_935">
<rect width="48.4528" height="48.4528" fill="white" transform="translate(257.406 0.48584)"/>
</clipPath>
<clipPath id="clip1_283_935">
<rect width="48.4528" height="48.4528" fill="white" transform="translate(128.953 0.48584)"/>
</clipPath>
<clipPath id="clip2_283_935">
<rect width="48.4528" height="48.4528" fill="white" transform="translate(0.5 0.48584)"/>
</clipPath>
</defs>
</svg>
